<?xml version="1.0" encoding="UTF-8"?>
<svg id="_图层_1" data-name="图层 1" xmlns="http://www.w3.org/2000/svg" viewBox="0 0 101.55 101.55">
  <defs>
    <style>
      .cls-1 {
        fill: #fff;
        stroke-width: 0px;
      }
    </style>
  </defs>
  <path class="cls-1" d="m34.62,55.38c2.55,0,4.62-2.07,4.62-4.62V18.45c0-5.09,4.14-9.23,9.23-9.23s9.23,4.14,9.23,9.23v3.43c0,2.55,2.06,4.62,4.62,4.62s4.62-2.07,4.62-4.62v-3.42c0-10.19-8.28-18.46-18.46-18.46s-18.46,8.29-18.46,18.46v32.31c-.02,2.55,2.04,4.61,4.6,4.61h0Zm32.31-9.23c-2.55,0-4.62,2.07-4.62,4.62v32.31c0,5.09-4.14,9.23-9.23,9.23s-9.23-4.14-9.23-9.23v-3.42c0-2.55-2.06-4.62-4.62-4.62s-4.62,2.07-4.62,4.62v3.42c0,10.19,8.28,18.46,18.46,18.46s18.46-8.29,18.46-18.46v-32.31c.01-2.55-2.05-4.62-4.6-4.62h0Zm0,0"/>
  <path class="cls-1" d="m83.09,29.99h-32.31c-2.55,0-4.62,2.07-4.62,4.62s2.06,4.62,4.62,4.62h32.31c5.09,0,9.23,4.14,9.23,9.23s-4.14,9.23-9.23,9.23h-3.42c-2.55,0-4.62,2.07-4.62,4.62s2.06,4.62,4.62,4.62h3.42c10.19,0,18.46-8.29,18.46-18.46s-8.28-18.48-18.46-18.48h0Zm-27.69,36.93c0-2.55-2.06-4.62-4.62-4.62H18.46c-5.09,0-9.23-4.14-9.23-9.23s4.14-9.23,9.23-9.23h3.42c2.55,0,4.62-2.07,4.62-4.62s-2.06-4.62-4.62-4.62h-3.42C8.28,34.6,0,42.89,0,53.06s8.28,18.46,18.46,18.46h32.31c2.55.02,4.62-2.05,4.62-4.6h0Zm0,0"/>
</svg>