<?xml version="1.0" encoding="UTF-8"?>
<svg id="_图层_1" data-name="图层 1" xmlns="http://www.w3.org/2000/svg" viewBox="0 0 121.58 121.58">
  <defs>
    <style>
      .cls-1 {
        fill: #0b0b0b;
        stroke-width: 0px;
      }
    </style>
  </defs>
  <path class="cls-1" d="m41.45,66.31c3.05,0,5.53-2.48,5.53-5.53V22.09c0-6.09,4.96-11.05,11.05-11.05s11.05,4.96,11.05,11.05v4.1c0,3.05,2.47,5.53,5.53,5.53s5.53-2.48,5.53-5.53v-4.09c0-12.19-9.91-22.1-22.1-22.1s-22.1,9.92-22.1,22.1v38.69c-.03,3.05,2.44,5.52,5.51,5.52h0Zm38.69-11.05c-3.05,0-5.53,2.48-5.53,5.53v38.69c0,6.09-4.96,11.05-11.05,11.05s-11.05-4.96-11.05-11.05v-4.09c0-3.05-2.47-5.53-5.53-5.53s-5.53,2.48-5.53,5.53v4.09c0,12.19,9.91,22.1,22.1,22.1s22.1-9.92,22.1-22.1v-38.69c.01-3.05-2.45-5.53-5.51-5.53h0Zm0,0"/>
  <path class="cls-1" d="m99.48,35.91h-38.69c-3.05,0-5.53,2.48-5.53,5.53s2.47,5.53,5.53,5.53h38.69c6.09,0,11.05,4.96,11.05,11.05s-4.96,11.05-11.05,11.05h-4.09c-3.05,0-5.53,2.48-5.53,5.53s2.47,5.53,5.53,5.53h4.09c12.19,0,22.1-9.92,22.1-22.1s-9.91-22.13-22.1-22.13h0Zm-33.16,44.22c0-3.05-2.47-5.53-5.53-5.53H22.1c-6.09,0-11.05-4.96-11.05-11.05s4.96-11.05,11.05-11.05h4.09c3.05,0,5.53-2.48,5.53-5.53s-2.47-5.53-5.53-5.53h-4.09C9.91,41.43,0,51.35,0,63.53s9.91,22.1,22.1,22.1h38.69c3.05.03,5.53-2.45,5.53-5.51h0Zm0,0"/>
</svg>